<svg width="110" height="45" viewBox="0 0 110 45" fill="none" xmlns="http://www.w3.org/2000/svg">
<path d="M7.176 34H0.552V1.36H7.176V15.712L11.592 15.232L16.968 1.36H24.504L17.4 17.728L24.696 34H17.064L11.592 20.992L7.176 21.472V34ZM32.9123 24.736C32.9443 26.208 33.3283 27.28 34.0643 27.952C34.8323 28.592 35.9203 28.912 37.3282 28.912C40.3043 28.912 42.9603 28.816 45.2963 28.624L46.6403 28.48L46.7363 33.232C43.0563 34.128 39.7283 34.576 36.7523 34.576C33.1363 34.576 30.5123 33.616 28.8803 31.696C27.2483 29.776 26.4323 26.656 26.4323 22.336C26.4323 13.728 29.9683 9.424 37.0403 9.424C44.0163 9.424 47.5043 13.04 47.5043 20.272L47.0243 24.736H32.9123ZM41.1683 19.84C41.1683 17.92 40.8643 16.592 40.2563 15.856C39.6483 15.088 38.5763 14.704 37.0403 14.704C35.5363 14.704 34.4643 15.104 33.8243 15.904C33.2163 16.672 32.8963 17.984 32.8643 19.84H41.1683ZM52.389 34V0.399998H58.821V34H52.389ZM62.7825 10H69.5025L73.3425 28.528H74.6865L78.7185 10H85.2465L79.4865 34H68.5425L62.7825 10ZM86.7368 10H93.0728L97.4408 28.528H98.5448L102.913 10H109.249L100.801 44.08H94.5128L97.1528 34H92.6408L86.7368 10Z" fill="#141414"/>
</svg>
